<?xml version="1.0" standalone="no"?>
<!DOCTYPE svg PUBLIC "-//W3C//DTD SVG 20010904//EN"
 "http://www.w3.org/TR/2001/REC-SVG-20010904/DTD/svg10.dtd">
<svg version="1.0" xmlns="http://www.w3.org/2000/svg"
 width="123.000000pt" height="131.000000pt" viewBox="0 0 123.000000 131.000000"
 preserveAspectRatio="xMidYMid meet">
<metadata>
Created by potrace 1.16, written by Peter Selinger 2001-2019
</metadata>
<g transform="translate(0.000000,131.000000) scale(0.100000,-0.100000)"
fill="#000000" stroke="none">
<path d="M525 1290 c-3 -5 -14 -10 -23 -10 -23 -1 -73 -46 -106 -96 -23 -35
-26 -51 -27 -125 -1 -106 9 -169 23 -145 9 16 11 16 24 -1 13 -16 14 -17 8 0
-5 13 -2 16 10 11 9 -3 16 -12 16 -19 0 -18 53 -12 58 6 9 34 34 79 42 79 6 0
10 -1 10 -3 0 -1 9 -26 19 -56 17 -46 18 -52 4 -47 -29 12 -83 -5 -83 -25 0
-10 -9 -23 -20 -29 -11 -6 -22 -21 -26 -34 -5 -23 -44 -44 -44 -24 0 5 -4 7
-9 3 -5 -3 4 -31 20 -63 32 -64 34 -84 14 -162 -9 -31 -13 -41 -12 -23 2 18 3
33 1 33 -9 0 -170 -57 -211 -75 -57 -26 -60 -31 -83 -170 -6 -38 -20 -101 -30
-140 -10 -38 -21 -94 -25 -123 l-7 -52 169 2 168 3 0 27 c-1 16 3 28 8 28 4 0
5 5 2 10 -25 40 -22 277 4 303 8 8 19 8 41 0 43 -16 103 -10 138 16 17 11 32
21 34 21 2 0 -11 -71 -28 -157 -18 -87 -36 -176 -39 -198 -6 -35 -8 -38 -20
-22 -6 9 -16 17 -20 17 -5 0 -1 -8 8 -18 10 -10 14 -21 11 -25 -4 -3 149 -6
340 -7 l346 0 -7 62 c-3 35 -23 121 -43 193 -21 72 -41 153 -45 180 -3 28 -9
56 -13 61 -9 15 -118 50 -225 73 -49 11 -90 21 -91 23 -1 2 -19 24 -40 50 -33
42 -37 52 -32 83 4 19 12 35 18 35 7 0 7 5 -1 14 -8 10 -9 16 -1 21 5 3 10 0
10 -7 1 -18 20 16 31 55 5 19 5 33 -1 37 -6 4 -6 18 0 39 15 55 15 173 -1 206
-8 17 -41 48 -78 72 -36 23 -78 56 -96 73 -31 30 -77 40 -90 20z"/>
</g>
</svg>
